<?xml version="1.0" standalone="no"?>
<!DOCTYPE svg PUBLIC "-//W3C//DTD SVG 20010904//EN"
 "http://www.w3.org/TR/2001/REC-SVG-20010904/DTD/svg10.dtd">
<svg version="1.0" xmlns="http://www.w3.org/2000/svg"
 width="400.000000pt" height="380.000000pt" viewBox="0 0 400.000000 380.000000"
 preserveAspectRatio="xMidYMid meet">
<metadata>
Created by potrace 1.15, written by Peter Selinger 2001-2017
</metadata>
<g transform="translate(0.000000,380.000000) scale(0.100000,-0.100000)"
fill="#000000" stroke="none">
<path d="M3365 3610 c-17 -10 -52 -45 -79 -76 -127 -147 -223 -156 -448 -43
-54 27 -108 49 -121 49 -89 0 -87 -167 5 -445 60 -182 72 -280 39 -332 -29
-47 -62 -59 -227 -87 -388 -67 -589 -160 -791 -369 -190 -197 -292 -406 -399
-815 -75 -286 -92 -322 -223 -444 -117 -111 -199 -161 -421 -257 -87 -37 -177
-83 -199 -100 -60 -48 -93 -123 -95 -218 -1 -68 2 -84 26 -125 54 -91 189
-173 287 -173 78 0 78 18 3 101 -60 64 -92 117 -92 149 0 50 66 117 162 166
86 44 426 176 499 195 76 20 114 13 178 -31 l51 -35 566 0 567 0 -6 62 c-9
106 -51 136 -189 137 -61 1 -78 4 -78 16 0 26 99 208 158 290 31 43 72 90 91
102 64 43 166 21 203 -43 10 -18 22 -67 27 -117 10 -100 43 -179 115 -274 85
-112 212 -203 283 -203 62 0 118 87 98 151 -4 12 -35 52 -69 88 -155 165 -194
281 -183 541 10 242 66 387 209 548 123 138 166 198 183 255 23 79 19 223 -10
347 -41 174 -32 236 46 325 69 79 74 102 50 229 -12 58 -28 163 -36 233 -18
150 -29 188 -58 208 -30 21 -86 19 -122 -5z"/>
</g>
</svg>
